<?xml version="1.0" encoding="UTF-8"?>
<svg id="Laag_1" data-name="Laag 1" xmlns="http://www.w3.org/2000/svg" viewBox="0 0 105.34 108.13">
  <defs>
    <style>
      .cls-1 {
        fill: #efb900;
      }

      .cls-2 {
        fill: #00c2e8;
      }
    </style>
  </defs>
  <g>
    <path class="cls-2" d="M17.33,54c0-20.23,15.81-36.67,36.8-36.67,14.45,0,26.48,7.89,32.5,19.47h18.71C98.39,15.85,79.01,0,54.13,0,22.64,0,0,25.17,0,54c0,5.5.82,10.87,2.36,15.95l15.61-9.01c-.42-2.25-.64-4.57-.64-6.94Z"/>
    <path class="cls-2" d="M86.58,71.33c-6.04,11.56-18.04,19.47-32.45,19.47-9.88,0-18.61-3.67-25.08-9.66l-15.49,8.94c9.66,10.97,23.87,18.05,40.57,18.05,24.86,0,44.22-15.81,51.19-36.79h-18.73Z"/>
  </g>
  <circle class="cls-1" cx="54.11" cy="54.06" r="21.29"/>
</svg>