<?xml version="1.0" encoding="UTF-8"?>
<svg id="Laag_1" data-name="Laag 1" xmlns="http://www.w3.org/2000/svg" viewBox="0 0 1942.46 2298.27">
  <defs>
    <style>
      .cls-1 {
        fill: #efb900;
      }

      .cls-2 {
        fill: #00c2e8;
      }
    </style>
  </defs>
  <polygon class="cls-2" points="791.1 970.17 791.1 1102.04 905.3 1167.97 1019.5 1102.04 1019.5 970.17 905.3 904.24 791.1 970.17"/>
  <polygon class="cls-2" points="1054.8 970.17 1054.8 1102.04 1169 1167.97 1283.2 1102.04 1283.2 970.17 1169 904.24 1054.8 970.17"/>
  <polygon class="cls-2" points="922.95 1196.23 922.95 1328.1 1037.15 1394.03 1151.35 1328.1 1151.35 1196.23 1037.15 1130.3 922.95 1196.23"/>
  <path class="cls-1" d="M1186.65,1262.17h0c0,40.8,21.77,78.5,57.1,98.9h0c35.33,20.4,78.87,20.4,114.2,0h0c35.33-20.4,57.1-58.1,57.1-98.9h0c0-40.8-21.77-78.5-57.1-98.9h0c-35.33-20.4-78.87-20.4-114.2,0h0c-35.33,20.4-57.1,58.1-57.1,98.9Z"/>
  <polygon class="cls-2" points="791.1 1422.29 791.1 1554.16 905.3 1620.09 1019.5 1554.16 1019.5 1422.29 905.3 1356.36 791.1 1422.29"/>
  <polygon class="cls-2" points="1054.8 1422.29 1054.8 1554.16 1169 1620.09 1283.2 1554.16 1283.2 1422.29 1169 1356.36 1054.8 1422.29"/>
  <polygon class="cls-2" points="659.25 291.99 659.25 423.86 773.45 489.79 887.65 423.86 887.65 291.99 773.45 226.06 659.25 291.99"/>
  <polygon class="cls-2" points="922.95 291.99 922.95 423.86 1037.15 489.79 1151.35 423.86 1151.35 291.99 1037.15 226.06 922.95 291.99"/>
  <polygon class="cls-2" points="791.1 518.05 791.1 649.92 905.3 715.85 1019.5 649.92 1019.5 518.05 905.3 452.12 791.1 518.05"/>
  <polygon class="cls-2" points="1054.8 518.05 1054.8 649.92 1169 715.85 1283.2 649.92 1283.2 518.05 1169 452.12 1054.8 518.05"/>
  <polygon class="cls-2" points="659.25 744.11 659.25 875.98 773.45 941.91 887.65 875.98 887.65 744.11 773.45 678.18 659.25 744.11"/>
  <polygon class="cls-2" points="791.1 65.93 791.1 197.8 905.3 263.73 1019.5 197.8 1019.5 65.93 905.3 0 791.1 65.93"/>
  <polygon class="cls-2" points="270.09 518.05 270.09 649.92 384.29 715.85 498.49 649.92 498.49 518.05 384.29 452.12 270.09 518.05"/>
  <path class="cls-1" d="M533.79,583.99h0c0,40.8,21.77,78.5,57.1,98.9h0c35.33,20.4,78.87,20.4,114.2,0h0c35.33-20.4,57.1-58.1,57.1-98.9h0c0-40.8-21.77-78.5-57.1-98.9h0c-35.33-20.4-78.87-20.4-114.2,0h0c-35.33,20.4-57.1,58.1-57.1,98.9Z"/>
  <polygon class="cls-2" points="401.94 744.11 401.94 875.98 516.14 941.91 630.34 875.98 630.34 744.11 516.14 678.18 401.94 744.11"/>
  <polygon class="cls-2" points="401.94 291.99 401.94 423.86 516.14 489.79 630.34 423.86 630.34 291.99 516.14 226.06 401.94 291.99"/>
  <polygon class="cls-2" points="525.62 1422.29 525.62 1554.16 639.82 1620.09 754.02 1554.16 754.02 1422.29 639.82 1356.36 525.62 1422.29"/>
  <polygon class="cls-2" points="0 970.17 0 1102.04 114.2 1167.97 228.4 1102.04 228.4 970.17 114.2 904.24 0 970.17"/>
  <polygon class="cls-2" points="263.7 970.17 263.7 1102.04 377.9 1167.97 492.1 1102.04 492.1 970.17 377.9 904.24 263.7 970.17"/>
  <polygon class="cls-2" points="0 1422.29 0 1554.16 114.2 1620.09 228.4 1554.16 228.4 1422.29 114.2 1356.36 0 1422.29"/>
  <polygon class="cls-2" points="527.4 970.17 527.4 1102.04 641.6 1167.97 755.8 1102.04 755.8 970.17 641.6 904.24 527.4 970.17"/>
  <polygon class="cls-2" points="131.85 1196.23 131.85 1328.1 246.05 1394.03 360.25 1328.1 360.25 1196.23 246.05 1130.3 131.85 1196.23"/>
  <path class="cls-1" d="M395.55,1714.29h0c0,40.8,21.77,78.5,57.1,98.9h0c35.33,20.4,78.87,20.4,114.2,0h0c35.33-20.4,57.1-58.1,57.1-98.9h0c0-40.8-21.77-78.5-57.1-98.9h0c-35.33-20.4-78.87-20.4-114.2,0h0c-35.33,20.4-57.1,58.1-57.1,98.9Z"/>
  <polygon class="cls-2" points="395.55 2100.47 395.55 2232.34 509.75 2298.27 623.95 2232.34 623.95 2100.47 509.75 2034.54 395.55 2100.47"/>
  <polygon class="cls-2" points="527.4 1874.41 527.4 2006.28 641.6 2072.21 755.8 2006.28 755.8 1874.41 641.6 1808.48 527.4 1874.41"/>
  <polygon class="cls-2" points="395.55 1196.23 395.55 1328.1 509.75 1394.03 623.95 1328.1 623.95 1196.23 509.75 1130.3 395.55 1196.23"/>
  <polygon class="cls-2" points="1318.51 518.05 1318.51 649.92 1432.7 715.85 1546.9 649.92 1546.9 518.05 1432.7 452.12 1318.51 518.05"/>
  <polygon class="cls-2" points="1582.21 518.05 1582.21 649.92 1696.41 715.85 1810.61 649.92 1810.61 518.05 1696.41 452.12 1582.21 518.05"/>
  <polygon class="cls-2" points="1318.51 970.17 1318.51 1102.04 1432.7 1167.97 1546.9 1102.04 1546.9 970.17 1432.7 904.24 1318.51 970.17"/>
  <polygon class="cls-2" points="1450.36 744.11 1450.36 875.98 1564.56 941.91 1678.75 875.98 1678.75 744.11 1564.56 678.18 1450.36 744.11"/>
  <polygon class="cls-2" points="1714.06 744.11 1714.06 875.98 1828.26 941.91 1942.46 875.98 1942.46 744.11 1828.26 678.18 1714.06 744.11"/>
  <polygon class="cls-2" points="1450.36 1196.23 1450.36 1328.1 1564.56 1394.03 1678.75 1328.1 1678.75 1196.23 1564.56 1130.3 1450.36 1196.23"/>
  <polygon class="cls-2" points="1318.51 1422.29 1318.51 1554.16 1432.7 1620.09 1546.9 1554.16 1546.9 1422.29 1432.7 1356.36 1318.51 1422.29"/>
  <polygon class="cls-2" points="1582.21 1422.29 1582.21 1554.16 1696.41 1620.09 1810.61 1554.16 1810.61 1422.29 1696.41 1356.36 1582.21 1422.29"/>
  <polygon class="cls-2" points="659.25 1648.35 659.25 1780.22 773.45 1846.15 887.65 1780.22 887.65 1648.35 773.45 1582.42 659.25 1648.35"/>
  <polygon class="cls-2" points="791.1 1874.41 791.1 2006.28 905.3 2072.21 1019.5 2006.28 1019.5 1874.41 905.3 1808.48 791.1 1874.41"/>
  <polygon class="cls-2" points="659.25 1196.23 659.25 1328.1 773.45 1394.03 887.65 1328.1 887.65 1196.23 773.45 1130.3 659.25 1196.23"/>
</svg>