<svg xmlns="http://www.w3.org/2000/svg" xmlns:xlink="http://www.w3.org/1999/xlink" width="1000" zoomAndPan="magnify" viewBox="0 0 750 749.999995" height="1000" preserveAspectRatio="xMidYMid meet" version="1.0"><path fill="#000000" d="M 95.035156 375 C 95.035156 220.632812 220.628906 95.035156 375 95.035156 C 435.542969 95.035156 491.667969 114.359375 537.515625 147.15625 L 605.496094 79.175781 C 579.679688 59 551.390625 42.355469 520.980469 29.5 C 474.714844 9.933594 425.601562 0.0078125 375 0.0078125 C 324.398438 0.0078125 275.285156 9.933594 229.023438 29.5 C 184.359375 48.382812 144.265625 75.421875 109.839844 109.84375 C 75.417969 144.265625 48.386719 184.363281 29.496094 229.019531 C 9.929688 275.285156 0.0117188 324.398438 0.0117188 375 C 0.0117188 425.601562 9.929688 474.714844 29.496094 520.980469 C 42.183594 550.976562 58.550781 578.90625 78.355469 604.449219 L 146.378906 536.429688 C 114.054688 490.773438 95.035156 435.070312 95.035156 375 " fill-opacity="1" fill-rule="nonzero"/><path fill="#4bc8f1" d="M 747.117188 328.214844 L 702.476562 328.214844 L 702.476562 327.484375 L 489.710938 327.484375 L 394.679688 422.515625 L 650.925781 422.515625 C 628.296875 554.335938 513.179688 654.964844 375 654.964844 C 314.933594 654.964844 259.222656 635.949219 213.574219 603.621094 L 145.550781 671.644531 C 171.09375 691.445312 199.027344 707.816406 229.023438 720.5 C 275.285156 740.066406 324.398438 749.992188 375 749.992188 C 425.601562 749.992188 474.714844 740.066406 520.980469 720.5 C 565.636719 701.617188 605.734375 674.578125 640.15625 640.15625 C 674.578125 605.734375 701.617188 565.636719 720.5 520.980469 C 740.066406 474.714844 749.992188 425.601562 749.992188 375 C 749.992188 359.25 749.023438 343.640625 747.117188 328.214844 " fill-opacity="1" fill-rule="nonzero"/><path fill="#000000" d="M 394.003906 591.777344 C 267.28125 591.777344 164.554688 489.054688 164.554688 362.328125 C 164.554688 286.71875 201.128906 219.652344 257.546875 177.851562 C 190.472656 217.898438 145.550781 291.203125 145.550781 375 C 145.550781 501.722656 248.277344 604.449219 375 604.449219 C 426.113281 604.449219 473.320312 587.738281 511.460938 559.476562 C 477.105469 579.984375 436.929688 591.777344 394.003906 591.777344 " fill-opacity="1" fill-rule="nonzero"/></svg>