<?xml version="1.0" encoding="UTF-8"?>
<svg id="Laag_1" data-name="Laag 1" xmlns="http://www.w3.org/2000/svg" viewBox="0 0 889.72 108.13">
  <defs>
    <style>
      .cls-1 {
        fill: #1d1d1b;
      }

      .cls-2 {
        fill: #00c2e8;
      }
    </style>
  </defs>
  <path class="cls-1" d="M170.79,108.13c-31.49,0-54.13-25.17-54.13-54.13S139.3,0,170.79,0s54,25.17,54,54-22.64,54.13-54,54.13ZM170.79,90.8c20.87,0,36.67-16.57,36.67-36.8s-15.81-36.67-36.67-36.67-36.8,16.44-36.8,36.67,15.81,36.8,36.8,36.8Z"/>
  <path class="cls-1" d="M237.43,1.9h19.73c39.46,0,56.78,23.65,56.78,51.98s-17.33,52.36-56.78,52.36h-19.73V1.9ZM259.05,88.78c25.42,0,37.43-15.18,37.43-34.9s-12.01-34.65-37.43-34.65h-4.3v69.56h4.3Z"/>
  <path class="cls-1" d="M567.7,1.96h17.33v87.64h34.78v16.57h-52.1V1.96Z"/>
  <path class="cls-1" d="M632.44,106.1L672.66,2.02h18.21l39.2,104.08h-17.83l-5.56-15.3h-50.33l-5.69,15.3h-18.21ZM701.24,76.01l-19.48-53.49-19.85,53.49h39.33Z"/>
  <path class="cls-1" d="M745.33,107.16v-17.65h38.15c8.54,0,11.39-6.18,11.39-14.03,0-7.39-3.19-13.43-9.91-13.43h-16.4c-18.56,0-25.85-12.22-25.85-31.08s8.31-30.02,23.92-30.02h38.27v17.8h-35.88c-6.38,0-9.91,5.13-9.91,13.12s3.07,12.67,10.25,12.67h16.97c18.45,0,24.15,13.73,24.15,30.17,0,17.95-7.63,32.43-26.99,32.43h-38.15Z"/>
  <path class="cls-1" d="M825.73,107.16v-17.65h38.15c8.54,0,11.39-6.18,11.39-14.03,0-7.39-3.19-13.43-9.91-13.43h-16.4c-18.56,0-25.85-12.22-25.85-31.08s8.31-30.02,23.92-30.02h38.27v17.8h-35.88c-6.38,0-9.91,5.13-9.91,13.12s3.08,12.67,10.25,12.67h16.97c18.45,0,24.15,13.73,24.15,30.17,0,17.95-7.63,32.43-26.99,32.43h-38.15Z"/>
  <path class="cls-1" d="M494.52,51.6v15.3h40.09c-4.17,14.16-17.7,24.28-33.39,24.28-21.63,0-36.93-16.57-36.93-36.93s15.43-36.93,37.05-36.93c10.9,0,20.54,4.91,26.66,12.57l15.88-9.17C534.32,8.29,519.22,0,501.35,0,469.86,0,447.22,25.17,447.22,54s22.64,54.13,54.13,54.13,55.39-26.56,53.62-56.53h-60.45Z"/>
  <path class="cls-1" d="M408.61,78.19c-6.38,8.04-16.49,13.49-28.04,13.49-20.11,0-35.41-14.8-36.93-33.01h90.67C437.48,27.57,412.44,0,380.7,0s-54.13,25.17-54.13,54.13,23.02,54,54.13,54c17.82,0,33.32-8.45,43.04-21.2l-15.12-8.73ZM380.57,16.19c17.45,0,31.87,12.14,35.41,27.32h-70.82c3.79-15.18,17.83-27.32,35.41-27.32Z"/>
  <g>
    <g>
      <path class="cls-1" d="M18.48,54c0-20.23,15.81-36.67,36.8-36.67,14.45,0,26.48,7.89,32.5,19.47h18.71C99.54,15.85,80.16,0,55.28,0,23.79,0,1.15,25.17,1.15,54c0,5.5.82,10.87,2.36,15.95l15.61-9.01c-.42-2.25-.64-4.57-.64-6.94Z"/>
      <path class="cls-1" d="M87.73,71.33c-6.04,11.56-18.04,19.47-32.45,19.47-9.88,0-18.61-3.67-25.08-9.66l-15.49,8.94c9.66,10.97,23.87,18.05,40.57,18.05,24.86,0,44.22-15.81,51.19-36.79h-18.73Z"/>
    </g>
    <circle class="cls-2" cx="55.26" cy="54.06" r="21.29"/>
  </g>
</svg>