<?xml version="1.0" encoding="UTF-8"?>
<svg id="Laag_1" data-name="Laag 1" xmlns="http://www.w3.org/2000/svg" viewBox="0 0 194.27 224.32">
  <defs>
    <style>
      .cls-1 {
        fill: #00c2e8;
      }
    </style>
  </defs>
  <path class="cls-1" d="M97.13,0L0,56.08v112.16l97.13,56.08,97.13-56.08V56.08L97.13,0ZM98.59,166.22c-16.7,0-30.91-7.08-40.57-18.05l15.49-8.94c6.48,5.99,15.2,9.66,25.08,9.66,14.41,0,26.41-7.91,32.46-19.47h18.73c-6.97,20.98-26.33,36.79-51.19,36.79ZM77.29,112.16c0-11.76,9.53-21.29,21.29-21.29s21.29,9.53,21.29,21.29-9.53,21.29-21.29,21.29-21.29-9.53-21.29-21.29ZM131.1,94.89c-6.03-11.57-18.05-19.47-32.5-19.47-20.99,0-36.8,16.44-36.8,36.67,0,2.37.23,4.69.64,6.94l-15.61,9.01c-1.54-5.08-2.36-10.45-2.36-15.95,0-28.83,22.64-54,54.13-54,24.88,0,44.26,15.85,51.21,36.79h-18.71Z"/>
</svg>